<svg width="24" height="25" viewBox="0 0 24 25" fill="none" xmlns="http://www.w3.org/2000/svg">
<path d="M23.04 0H0.96C0.429 0 0 0.429711 0 0.961592V23.0782C0 23.6101 0.429 24.0398 0.96 24.0398H23.04C23.571 24.0398 24 23.6101 24 23.0782V0.961592C24 0.429711 23.571 0 23.04 0ZM22.08 22.1166H16.557V14.7304H19.677L20.145 11.1034H16.557V8.78654C16.557 7.7348 16.848 7.01962 18.351 7.01962H20.268V3.77425C19.935 3.72917 18.798 3.63001 17.472 3.63001C14.706 3.63001 12.813 5.32181 12.813 8.42595V11.1004H9.687V14.7274H12.816V22.1166H1.92V1.92318H22.08V22.1166Z" fill="white"/>
</svg>
