<svg width="24" height="25" viewBox="0 0 24 25" fill="none" xmlns="http://www.w3.org/2000/svg">
<path d="M5.52 9.85632C5.26887 9.85582 5.02542 9.94305 4.83159 10.103C4.63775 10.2629 4.50565 10.4855 4.45804 10.7325C4.41043 10.9795 4.45029 11.2354 4.57075 11.4561C4.69121 11.6768 4.88474 11.8486 5.118 11.9418C5.463 11.3979 5.931 10.9051 6.495 10.4753C6.40788 10.2901 6.26994 10.1335 6.09729 10.0239C5.92464 9.91432 5.72441 9.85618 5.52 9.85632ZM14.211 15.4125C13.764 15.7641 12.882 16.1427 12 16.1427C11.118 16.1427 10.233 15.7641 9.789 15.4125C9.51 15.1932 9.108 15.2412 8.889 15.5207C8.67 15.8002 8.718 16.2028 8.997 16.4222C9.768 17.0352 10.947 17.4289 12 17.4289C13.053 17.4289 14.232 17.0352 15.006 16.4222C15.285 16.2028 15.333 15.7971 15.114 15.5207C15.0085 15.3866 14.8541 15.2999 14.6848 15.2796C14.5155 15.2593 14.3451 15.3071 14.211 15.4125ZM23.04 0H0.96C0.429 0 0 0.429711 0 0.961592V23.0782C0 23.6101 0.429 24.0398 0.96 24.0398H23.04C23.571 24.0398 24 23.6101 24 23.0782V0.961592C24 0.429711 23.571 0 23.04 0ZM19.35 12.9184C19.488 13.3241 19.56 13.7478 19.56 14.1835C19.56 17.1704 16.176 19.5924 12 19.5924C7.824 19.5924 4.44 17.1704 4.44 14.1835C4.44 13.7478 4.512 13.3241 4.65 12.9184C4.19663 12.7182 3.82575 12.3679 3.59952 11.9264C3.3733 11.4848 3.3055 10.9788 3.40746 10.4931C3.50943 10.0074 3.77498 9.5716 4.1596 9.25871C4.54421 8.94582 5.02452 8.77487 5.52 8.77452C6.333 8.77452 7.038 9.22227 7.407 9.88637C8.493 9.29138 9.813 8.90073 11.25 8.80157L13.002 4.86205C13.131 4.56756 13.458 4.41731 13.767 4.50746L16.515 5.30378C16.6861 4.98553 16.9584 4.73357 17.2886 4.58784C17.6188 4.4421 17.9882 4.41093 18.3381 4.49925C18.6881 4.58756 18.9986 4.79033 19.2204 5.07541C19.4423 5.36049 19.5629 5.71158 19.563 6.07305C19.563 6.96854 18.837 7.69574 17.943 7.69574C17.238 7.69574 16.638 7.24199 16.416 6.61094L13.95 5.89876L12.66 8.79856C14.133 8.88871 15.486 9.28237 16.596 9.88937C16.965 9.22527 17.67 8.77753 18.483 8.77753C19.677 8.77753 20.643 9.74513 20.643 10.9411C20.64 11.8216 20.109 12.5818 19.35 12.9184ZM14.16 13.1017C14.16 13.3886 14.2738 13.6638 14.4763 13.8666C14.6789 14.0695 14.9536 14.1835 15.24 14.1835C15.5264 14.1835 15.8011 14.0695 16.0037 13.8666C16.2062 13.6638 16.32 13.3886 16.32 13.1017C16.32 12.8148 16.2062 12.5396 16.0037 12.3367C15.8011 12.1339 15.5264 12.0199 15.24 12.0199C14.9536 12.0199 14.6789 12.1339 14.4763 12.3367C14.2738 12.5396 14.16 12.8148 14.16 13.1017ZM18.48 9.85632C18.2756 9.85618 18.0754 9.91432 17.9027 10.0239C17.7301 10.1335 17.5921 10.2901 17.505 10.4753C18.069 10.9051 18.537 11.3979 18.882 11.9418C19.1153 11.8486 19.3088 11.6768 19.4292 11.4561C19.5497 11.2354 19.5896 10.9795 19.542 10.7325C19.4943 10.4855 19.3623 10.2629 19.1684 10.103C18.9746 9.94305 18.7311 9.85582 18.48 9.85632ZM7.68 13.1017C7.68 13.3886 7.79379 13.6638 7.99632 13.8666C8.19886 14.0695 8.47357 14.1835 8.76 14.1835C9.04643 14.1835 9.32114 14.0695 9.52367 13.8666C9.72621 13.6638 9.84 13.3886 9.84 13.1017C9.84 12.8148 9.72621 12.5396 9.52367 12.3367C9.32114 12.1339 9.04643 12.0199 8.76 12.0199C8.47357 12.0199 8.19886 12.1339 7.99632 12.3367C7.79379 12.5396 7.68 12.8148 7.68 13.1017Z" fill="white"/>
</svg>
